<svg width="216" height="106" viewBox="0 0 216 106" fill="none" xmlns="http://www.w3.org/2000/svg">
<path d="M23.6917 42.0224L50.9661 37.5643L62.0302 62.8892L46.4434 91.5267L19.169 95.9848L8.10493 70.6598L23.6917 42.0224Z" fill="#2B5EED"/>
<path d="M35.2015 83.5411C32.2794 83.5411 29.5935 82.8329 27.1437 81.4167C24.7234 80.0004 22.7901 78.03 21.3439 75.5053C19.9271 72.9499 19.2188 70.0866 19.2188 66.9154C19.2188 63.7442 19.9271 60.8963 21.3439 58.3717C22.7901 55.847 24.7234 53.8766 27.1437 52.4603C29.5935 51.0441 32.2794 50.3359 35.2015 50.3359C38.1235 50.3359 40.7947 51.0441 43.215 52.4603C45.6648 53.8766 47.5833 55.847 48.9705 58.3717C50.3873 60.8963 51.0957 63.7442 51.0957 66.9154C51.0957 70.0866 50.3873 72.9499 48.9705 75.5053C47.5538 78.03 45.6353 80.0004 43.215 81.4167C40.7947 82.8329 38.1235 83.5411 35.2015 83.5411ZM35.2015 76.3366C37.6808 76.3366 39.6583 75.4745 41.1341 73.7504C42.6394 72.0263 43.3921 69.7479 43.3921 66.9154C43.3921 64.0521 42.6394 61.7738 41.1341 60.0804C39.6583 58.3563 37.6808 57.4942 35.2015 57.4942C32.6926 57.4942 30.6856 58.3409 29.1803 60.0342C27.7045 61.7276 26.9666 64.0213 26.9666 66.9154C26.9666 69.7787 27.7045 72.0724 29.1803 73.7966C30.6856 75.4899 32.6926 76.3366 35.2015 76.3366Z" fill="white"/>
<path d="M60.1161 67.0931C60.668 66.2266 61.4297 65.5267 62.4011 64.9934C63.3726 64.4602 64.5096 64.1935 65.8122 64.1935C67.3355 64.1935 68.7154 64.5824 69.9517 65.36C71.1881 66.1377 72.1595 67.2487 72.866 68.6929C73.5946 70.1371 73.9589 71.8147 73.9589 73.7255C73.9589 75.6363 73.5946 77.325 72.866 78.7914C72.1595 80.2357 71.1881 81.3577 69.9517 82.1576C68.7154 82.9353 67.3355 83.3241 65.8122 83.3241C64.5316 83.3241 63.3946 83.0575 62.4011 82.5242C61.4297 81.991 60.668 81.3022 60.1161 80.4579V91.9229H54.4531V64.4602H60.1161V67.0931ZM68.1966 73.7255C68.1966 72.3035 67.7992 71.1925 67.0044 70.3926C66.2316 69.5705 65.2712 69.1595 64.1232 69.1595C62.9972 69.1595 62.0369 69.5705 61.242 70.3926C60.4693 71.2148 60.083 72.3368 60.083 73.7588C60.083 75.1809 60.4693 76.3029 61.242 77.125C62.0369 77.9471 62.9972 78.3582 64.1232 78.3582C65.2492 78.3582 66.2096 77.9471 67.0044 77.125C67.7992 76.2807 68.1966 75.1475 68.1966 73.7255Z" fill="#242424"/>
<path d="M87.2291 78.2249V83.0575H84.3479C82.2947 83.0575 80.6941 82.5576 79.546 81.5577C78.398 80.5356 77.8239 78.8803 77.8239 76.5918V69.1928H75.572V64.4602H77.8239V59.9275H83.4869V64.4602H87.196V69.1928H83.4869V76.6584C83.4869 77.2139 83.6194 77.6138 83.8843 77.8582C84.1492 78.1027 84.5908 78.2249 85.209 78.2249H87.2291Z" fill="#242424"/>
<path d="M93.2315 62.5271C92.238 62.5271 91.4211 62.2383 90.7809 61.6606C90.1627 61.0607 89.8536 60.3274 89.8536 59.4609C89.8536 58.5721 90.1627 57.8389 90.7809 57.2612C91.4211 56.6613 92.238 56.3613 93.2315 56.3613C94.2029 56.3613 94.9977 56.6613 95.6159 57.2612C96.2561 57.8389 96.5763 58.5721 96.5763 59.4609C96.5763 60.3274 96.2561 61.0607 95.6159 61.6606C94.9977 62.2383 94.2029 62.5271 93.2315 62.5271ZM96.0464 64.4602V83.0575H90.3835V64.4602H96.0464Z" fill="#242424"/>
<path d="M107.171 64.1935C108.474 64.1935 109.611 64.4602 110.582 64.9934C111.576 65.5267 112.337 66.2266 112.867 67.0931V64.4602H118.53V83.0242C118.53 84.735 118.188 86.2793 117.503 87.6568C116.841 89.0566 115.814 90.1676 114.424 90.9897C113.055 91.8118 111.344 92.2228 109.291 92.2228C106.553 92.2228 104.334 91.5674 102.634 90.2565C100.934 88.9678 99.9626 87.2125 99.7198 84.9906H105.316C105.493 85.7016 105.913 86.257 106.575 86.657C107.237 87.0791 108.054 87.2902 109.026 87.2902C110.196 87.2902 111.123 86.9458 111.807 86.257C112.514 85.5905 112.867 84.5128 112.867 83.0242V80.3912C112.315 81.2578 111.553 81.9688 110.582 82.5242C109.611 83.0575 108.474 83.3241 107.171 83.3241C105.648 83.3241 104.268 82.9353 103.031 82.1576C101.795 81.3577 100.813 80.2357 100.084 78.7914C99.3776 77.325 99.0243 75.6363 99.0243 73.7255C99.0243 71.8147 99.3776 70.1371 100.084 68.6929C100.813 67.2487 101.795 66.1377 103.031 65.36C104.268 64.5824 105.648 64.1935 107.171 64.1935ZM112.867 73.7588C112.867 72.3368 112.47 71.2148 111.675 70.3926C110.902 69.5705 109.953 69.1595 108.827 69.1595C107.701 69.1595 106.741 69.5705 105.946 70.3926C105.173 71.1925 104.787 72.3035 104.787 73.7255C104.787 75.1475 105.173 76.2807 105.946 77.125C106.741 77.9471 107.701 78.3582 108.827 78.3582C109.953 78.3582 110.902 77.9471 111.675 77.125C112.47 76.3029 112.867 75.1809 112.867 73.7588Z" fill="#242424"/>
<path d="M128.29 67.5597C128.952 66.5376 129.78 65.7378 130.774 65.1601C131.767 64.5602 132.871 64.2602 134.085 64.2602V70.2927H132.529C131.116 70.2927 130.056 70.6037 129.35 71.2259C128.643 71.8258 128.29 72.8923 128.29 74.4254V83.0575H122.627V64.4602H128.29V67.5597Z" fill="#242424"/>
<path d="M135.666 73.7255C135.666 71.8147 136.019 70.1371 136.726 68.6929C137.454 67.2487 138.437 66.1377 139.673 65.36C140.91 64.5824 142.289 64.1935 143.813 64.1935C145.115 64.1935 146.252 64.4602 147.224 64.9934C148.217 65.5267 148.979 66.2266 149.509 67.0931V64.4602H155.172V83.0575H149.509V80.4245C148.957 81.2911 148.184 81.991 147.191 82.5242C146.219 83.0575 145.082 83.3241 143.78 83.3241C142.278 83.3241 140.91 82.9353 139.673 82.1576C138.437 81.3577 137.454 80.2357 136.726 78.7914C136.019 77.325 135.666 75.6363 135.666 73.7255ZM149.509 73.7588C149.509 72.3368 149.112 71.2148 148.317 70.3926C147.544 69.5705 146.595 69.1595 145.469 69.1595C144.343 69.1595 143.382 69.5705 142.588 70.3926C141.815 71.1925 141.428 72.3035 141.428 73.7255C141.428 75.1475 141.815 76.2807 142.588 77.125C143.382 77.9471 144.343 78.3582 145.469 78.3582C146.595 78.3582 147.544 77.9471 148.317 77.125C149.112 76.3029 149.509 75.1809 149.509 73.7588Z" fill="#242424"/>
<path d="M164.932 67.0931C165.484 66.2266 166.245 65.5267 167.217 64.9934C168.188 64.4602 169.325 64.1935 170.628 64.1935C172.151 64.1935 173.531 64.5824 174.767 65.36C176.004 66.1377 176.975 67.2487 177.682 68.6929C178.41 70.1371 178.775 71.8147 178.775 73.7255C178.775 75.6363 178.41 77.325 177.682 78.7914C176.975 80.2357 176.004 81.3577 174.767 82.1576C173.531 82.9353 172.151 83.3241 170.628 83.3241C169.347 83.3241 168.21 83.0575 167.217 82.5242C166.245 81.991 165.484 81.3022 164.932 80.4579V91.9229H159.269V64.4602H164.932V67.0931ZM173.012 73.7255C173.012 72.3035 172.615 71.1925 171.82 70.3926C171.047 69.5705 170.087 69.1595 168.939 69.1595C167.813 69.1595 166.853 69.5705 166.058 70.3926C165.285 71.2148 164.899 72.3368 164.899 73.7588C164.899 75.1809 165.285 76.3029 166.058 77.125C166.853 77.9471 167.813 78.3582 168.939 78.3582C170.065 78.3582 171.025 77.9471 171.82 77.125C172.615 76.2807 173.012 75.1475 173.012 73.7255Z" fill="#242424"/>
<path d="M193.104 64.2602C195.224 64.2602 196.924 64.9712 198.204 66.3932C199.485 67.793 200.125 69.7261 200.125 72.1924V83.0575H194.495V72.9589C194.495 71.7147 194.175 70.7482 193.535 70.0594C192.895 69.3706 192.034 69.0262 190.952 69.0262C189.87 69.0262 189.009 69.3706 188.369 70.0594C187.729 70.7482 187.408 71.7147 187.408 72.9589V83.0575H181.745V58.3944H187.408V66.9598C187.982 66.1377 188.766 65.4822 189.76 64.9934C190.753 64.5046 191.868 64.2602 193.104 64.2602Z" fill="#242424"/>
</svg>
